# xmcd
# 
# Track frame offsets:
#     150
#     15054
#     30873
#     46298
#     64090
#     84619
#     103511
#     118997
#     134799
#     149599
# 
# Disc length: 2228
# 
# Revision: 5
# Processed by: cddbd v1.5.2PL0 Copyright (c) Steve Scherf et al.
# Submitted via: fre:ac v1.0.17
# 
DISCID=8408b20a
DTITLE=ARISA - Sincerità
DYEAR=2009
DGENRE=Pop e Rock Italiano
TTITLE0=sincerità
TTITLE1=io sono
TTITLE2=la mia strana verità
TTITLE3=abbi cura di te
TTITLE4=pensa così
TTITLE5=piccola rosa
TTITLE6=te lo volevo dire
TTITLE7=com'è facile
TTITLE8=l'uomo che non c'è
TTITLE9=buona notte
EXTD=YEAR: 2009
EXTT0=
EXTT1=
EXTT2=
EXTT3=
EXTT4=
EXTT5=
EXTT6=
EXTT7=
EXTT8=
EXTT9=
PLAYORDER=
